<svg width="16" height="16" viewBox="0 0 16 16" fill="none" xmlns="http://www.w3.org/2000/svg">
<path d="M15.146 0.146021C15.1925 0.0995332 15.2477 0.0626571 15.3084 0.037498C15.3691 0.0123389 15.4342 -0.000610351 15.5 -0.000610352C15.5657 -0.000610352 15.6308 0.0123389 15.6916 0.037498C15.7523 0.0626571 15.8075 0.0995332 15.854 0.146021C15.9005 0.192509 15.9373 0.247698 15.9625 0.308438C15.9877 0.369177 16.0006 0.434277 16.0006 0.500021C16.0006 0.565765 15.9877 0.630865 15.9625 0.691605C15.9373 0.752344 15.9005 0.807533 15.854 0.854021L12.354 4.35202C14.0874 5.53435 15.2942 7.34342 15.72 9.39802C15.7334 9.46237 15.734 9.52872 15.7217 9.5933C15.7095 9.65788 15.6846 9.71941 15.6486 9.77438C15.6126 9.82935 15.5661 9.87669 15.5117 9.91369C15.4574 9.95069 15.3963 9.97663 15.332 9.99002C15.2676 10.0034 15.2013 10.004 15.1367 9.99176C15.0721 9.97951 15.0106 9.95466 14.9556 9.91863C14.9006 9.8826 14.8533 9.8361 14.8163 9.78177C14.7793 9.72745 14.7534 9.66637 14.74 9.60202C14.5492 8.67859 14.1762 7.80249 13.6427 7.025C13.1092 6.2475 12.4259 5.58424 11.633 5.07402L10.047 6.66002C10.4582 6.95655 10.8001 7.33888 11.049 7.78056C11.2979 8.22224 11.4479 8.71272 11.4886 9.21808C11.5293 9.72343 11.4597 10.2316 11.2847 10.7074C11.1096 11.1832 10.8333 11.6153 10.4748 11.9738C10.1163 12.3323 9.68417 12.6086 9.20836 12.7837C8.73255 12.9587 8.22439 13.0283 7.71904 12.9877C7.21368 12.947 6.7232 12.797 6.28152 12.5481C5.83984 12.2992 5.45751 11.9573 5.16098 11.546L0.853979 15.854C0.760092 15.9479 0.632755 16.0007 0.499979 16.0007C0.367203 16.0007 0.239866 15.9479 0.145979 15.854C0.0520923 15.7601 -0.000652309 15.6328 -0.000652313 15.5C-0.000652317 15.3672 0.0520923 15.2399 0.145979 15.146L15.146 0.146021V0.146021ZM5.88098 10.826C6.08056 11.1445 6.34938 11.4138 6.66742 11.614C6.98546 11.8142 7.34455 11.9402 7.71798 11.9825C8.0914 12.0247 8.46956 11.9823 8.82432 11.8583C9.17908 11.7342 9.50132 11.5318 9.76706 11.2661C10.0328 11.0004 10.2352 10.6781 10.3592 10.3234C10.4833 9.9686 10.5257 9.59045 10.4834 9.21702C10.4411 8.84359 10.3152 8.4845 10.115 8.16646C9.91476 7.84842 9.64542 7.57961 9.32698 7.38002L5.88098 10.827V10.826Z" fill="black"/>
<path d="M7.87695 6.00201L4.50195 9.37601C4.53327 8.49115 4.8988 7.65104 5.52489 7.02495C6.15098 6.39886 6.99109 6.03334 7.87595 6.00201H7.87695Z" fill="black"/>
<path d="M7.99999 4C8.56999 4 9.12899 4.074 9.66599 4.213L10.469 3.41C9.67409 3.13868 8.83992 3.00016 7.99999 3C4.30699 3 1.05799 5.673 0.279995 9.398C0.252943 9.52796 0.278623 9.66334 0.351387 9.77436C0.424151 9.88538 0.538037 9.96295 0.667994 9.99C0.79795 10.0171 0.93333 9.99137 1.04435 9.91861C1.15537 9.84584 1.23294 9.73196 1.25999 9.602C1.94199 6.327 4.79299 4 7.99999 4Z" fill="black"/>
</svg>
