<svg width="16" height="10" viewBox="0 0 16 10" fill="none" xmlns="http://www.w3.org/2000/svg">
<path d="M14.74 6.602C14.058 3.327 11.207 1 8.00002 1C4.79402 1 1.94302 3.327 1.26002 6.602C1.23297 6.73196 1.1554 6.84584 1.04438 6.91861C0.93336 6.99137 0.797979 7.01705 0.668023 6.99C0.538067 6.96295 0.424181 6.88538 0.351417 6.77436C0.278652 6.66334 0.252972 6.52796 0.280025 6.398C1.05702 2.673 4.30702 0 8.00002 0C11.693 0 14.943 2.673 15.72 6.398C15.7471 6.52796 15.7214 6.66334 15.6486 6.77436C15.5759 6.88538 15.462 6.96295 15.332 6.99C15.2021 7.01705 15.0667 6.99137 14.9557 6.91861C14.8446 6.84584 14.7671 6.73196 14.74 6.602V6.602Z" fill="black"/>
<path d="M8 3C8.92826 3 9.8185 3.36875 10.4749 4.02513C11.1313 4.6815 11.5 5.57174 11.5 6.5C11.5 7.42826 11.1313 8.3185 10.4749 8.97487C9.8185 9.63125 8.92826 10 8 10C7.07174 10 6.1815 9.63125 5.52513 8.97487C4.86875 8.3185 4.5 7.42826 4.5 6.5C4.5 5.57174 4.86875 4.6815 5.52513 4.02513C6.1815 3.36875 7.07174 3 8 3ZM10.5 6.5C10.5 5.83696 10.2366 5.20107 9.76777 4.73223C9.29893 4.26339 8.66304 4 8 4C7.33696 4 6.70107 4.26339 6.23223 4.73223C5.76339 5.20107 5.5 5.83696 5.5 6.5C5.5 7.16304 5.76339 7.79893 6.23223 8.26777C6.70107 8.73661 7.33696 9 8 9C8.66304 9 9.29893 8.73661 9.76777 8.26777C10.2366 7.79893 10.5 7.16304 10.5 6.5V6.5Z" fill="black"/>
</svg>
